<?xml version="1.0" encoding="UTF-8" standalone="no"?>
<svg width="92px" height="90px" viewBox="0 0 92 90" version="1.1" xmlns="http://www.w3.org/2000/svg" xmlns:xlink="http://www.w3.org/1999/xlink">
    <!-- Generator: Sketch 3.7.2 (28276) - http://www.bohemiancoding.com/sketch -->
    <title>If</title>
    <desc>Created with Sketch.</desc>
    <defs></defs>
    <g id="Page-1" stroke="none" stroke-width="1" fill="none" fill-rule="evenodd">
        <g id="If">
            <g id="if_blue_rgb.eps">
                <path d="M91.11375,45.1245536 C91.11375,69.9139286 70.7158929,90 45.5544643,90 C20.3946429,90 0,69.9139286 0,45.1245536 C0,20.3432143 20.3946429,0.252321429 45.5544643,0.252321429 C70.7158929,0.252321429 91.11375,20.3432143 91.11375,45.1245536" id="Fill-1" fill="#2D82B8"></path>
                <path d="M39.7020536,32.9858036 C39.6433929,33.1891071 39.7703571,33.451875 40.0548214,33.451875 L43.9320536,33.3988393 C43.9320536,33.3988393 38.7136607,54.3141964 37.6569643,58.5466071 C36.3342857,63.8614286 34.1951786,69.2742857 32.6732143,71.19 C31.3103571,72.9072321 30.4015179,73.4375893 29.4766071,73.4375893 C28.1852679,73.4391964 27.5150893,72.50625 27.14625,70.9714286 C26.89875,69.8633036 26.17875,68.3469643 24.5788393,68.3469643 C22.9186607,68.3469643 20.6413393,70.2313393 20.6413393,72.50625 C20.6413393,75.5839286 25.7801786,76.275 27.4990179,76.275 C30.886875,76.275 35.2655357,74.1182143 38.21625,70.7375893 C41.9697321,66.4939286 44.0525893,61.1726786 46.0020536,53.6801786 L50.7672321,33.3658929 L55.7582143,33.4526786 C56.1624107,33.4526786 56.3432143,33.1698214 56.4179464,32.9600893 L57.0648214,31.100625 C57.1371429,30.886875 57.0230357,30.6216964 56.7072321,30.6216964 L51.5539286,30.6208929 C52.7841964,26.31375 54.6340179,19.9502679 58.14,16.4442857 C58.4469643,16.1349107 59.3204464,15.384375 60.1191964,15.3755357 C61.5198214,15.3634821 61.9127679,16.1646429 62.4953571,17.4559821 C63.0675,18.7280357 62.9702679,20.9121429 64.9028571,20.9121429 C67.1335714,20.9121429 68.8122321,18.4178571 68.8122321,16.6966071 C68.8122321,14.3582143 64.7590179,12.8475 61.5222321,12.8475 C57.7108929,12.8475 54.0747321,14.473125 51.4309821,17.1176786 C47.6308929,20.98125 45.8879464,26.6858036 44.7203571,30.6225 L40.8383036,30.5702679 C40.573125,30.5702679 40.3521429,30.7976786 40.2926786,30.9889286 L39.7020536,32.9858036" id="Fill-2" fill="#FFFFFF"></path>
                <path d="M59.7447321,54.1872321 C59.7013393,55.1965179 59.1203571,58.0773214 55.9333929,58.0773214 C54.0658929,58.0773214 52.75125,56.8663393 52.8452679,54.7416964 C52.9376786,52.5704464 54.4845536,50.799375 56.61,50.7479464 C58.1239286,50.7479464 59.8540179,51.710625 59.7447321,54.1872321" id="Fill-3" fill="#FFFFFF"></path>
                <path d="M70.846875,54.1872321 C70.8034821,55.1965179 70.2233036,58.0773214 67.0371429,58.0773214 C65.1688393,58.0773214 63.8533929,56.8663393 63.9466071,54.7416964 C64.0398214,52.5704464 65.5866964,50.799375 67.7129464,50.7479464 C69.2260714,50.7479464 70.9569643,51.710625 70.846875,54.1872321" id="Fill-4" fill="#FFFFFF"></path>
                <path d="M81.9522321,54.1872321 C81.9104464,55.1965179 81.3286607,58.0773214 78.1408929,58.0773214 C76.2741964,58.0773214 74.95875,56.8663393 75.0511607,54.7416964 C75.1459821,52.5704464 76.6920536,50.799375 78.8183036,50.7479464 C80.3314286,50.7479464 82.0623214,51.710625 81.9522321,54.1872321" id="Fill-5" fill="#FFFFFF"></path>
                <path d="M34.1316964,16.5841071 C31.865625,16.63875 30.1901786,18.5223214 30.0455357,20.8374107 C29.9089286,23.1010714 31.28625,24.395625 33.2783036,24.395625 C36.669375,24.395625 37.3427679,21.3227679 37.4110714,20.2451786 C37.5717857,17.60625 35.7492857,16.5841071 34.1316964,16.5841071" id="Fill-6" fill="#FFFFFF"></path>
                <path d="M28.5983036,46.35 L32.1629464,37.7453571 C32.900625,36.0208929 33.78375,33.7917857 33.78375,32.3172321 C33.78375,30.4103571 32.3349107,29.9466964 31.2910714,29.9466964 C26.4953571,29.9466964 21.3484821,35.55 19.3596429,37.8048214 C19.2182143,37.9711607 19.1217857,38.2467857 19.4150893,38.5304464 L20.3175,39.3910714 C20.4878571,39.5461607 20.7924107,39.5558036 20.9796429,39.3500893 C20.9796429,39.3500893 23.3421429,36.781875 24.204375,36.1494643 C24.4341964,35.9726786 24.8030357,35.7348214 25.0175893,35.7348214 C25.3245536,35.7348214 25.4740179,36.1928571 25.4740179,36.4403571 C25.4740179,37.2399107 24.6696429,39.144375 24.2991964,40.12875 L20.6035714,49.4799107 C19.3138393,52.61625 18.70875,54.2796429 18.70875,55.6939286 C18.70875,57.2914286 19.603125,58.5530357 21.8177679,58.5530357 C26.9485714,58.5538393 33.42375,50.8242857 33.42375,50.8242857 C33.676875,50.5366071 33.5507143,50.2553571 33.3948214,50.1099107 L32.4369643,49.1946429 C32.2794643,49.0403571 31.9845536,48.9849107 31.7523214,49.2227679 C31.7523214,49.2227679 28.2865179,53.0791071 27.1060714,53.0791071 C26.5733036,53.0791071 26.5885714,52.4258036 26.5885714,52.3205357 C26.5885714,51.7524107 26.938125,50.715 27.1205357,50.2224107 L28.5983036,46.35" id="Fill-7" fill="#FFFFFF"></path>
            </g>
        </g>
    </g>
</svg>