<?xml version="1.0" encoding="UTF-8" standalone="no"?>
<svg width="262px" height="90px" viewBox="0 0 262 90" version="1.1" xmlns="http://www.w3.org/2000/svg" xmlns:xlink="http://www.w3.org/1999/xlink">
    <!-- Generator: Sketch 3.7.2 (28276) - http://www.bohemiancoding.com/sketch -->
    <title>Innovasjon Norge</title>
    <desc>Created with Sketch.</desc>
    <defs></defs>
    <g id="Page-1" stroke="none" stroke-width="1" fill="none" fill-rule="evenodd">
        <g id="Innovasjon-Norge">
            <g id="Page-1">
                <polygon id="Fill-1" fill="#ED3426" points="74.5933091 0 74.5933091 52.6843636 56.1145091 27.9592364 33.2558182 27.9592364 74.5576364 83.8769891 93.1968 83.8769891 93.1968 0"></polygon>
                <polygon id="Fill-2" fill="#ED3426" points="0 83.8768909 18.6391636 83.8768909 18.6391636 55.9183091 0 55.9183091"></polygon>
                <polygon id="Fill-3" fill="#000000" points="121.166509 48.8768727 124.125382 48.8768727 124.125382 27.8986909 121.166509 27.8986909"></polygon>
                <path d="M132.232582,48.8768727 L129.451418,48.8768727 L129.451418,34.6447636 L132.173345,34.6447636 L132.173345,36.6862909 C133.208836,34.9111636 134.8956,34.2307636 136.552582,34.2307636 C139.955236,34.2307636 141.641673,36.6862909 141.641673,39.8523273 L141.641673,48.8768727 L138.860509,48.8768727 L138.860509,40.3258909 C138.860509,38.3432727 138.031855,36.7455273 135.546545,36.7455273 C133.357091,36.7455273 132.232582,38.4912 132.232582,40.6512 L132.232582,48.8768727 Z" id="Fill-4" fill="#000000"></path>
                <path d="M149.157491,48.8768727 L146.376,48.8768727 L146.376,34.6447636 L149.097927,34.6447636 L149.097927,36.6862909 C150.133745,34.9111636 151.820509,34.2307636 153.477164,34.2307636 C156.879818,34.2307636 158.566255,36.6862909 158.566255,39.8523273 L158.566255,48.8768727 L155.785091,48.8768727 L155.785091,40.3258909 C155.785091,38.3432727 154.956764,36.7455273 152.471127,36.7455273 C150.282,36.7455273 149.157491,38.4912 149.157491,40.6512 L149.157491,48.8768727 Z" id="Fill-5" fill="#000000"></path>
                <path d="M173.833855,41.7459273 C173.833855,38.4617455 171.762873,36.6866182 169.395382,36.6866182 C167.028545,36.6866182 164.957564,38.4617455 164.957564,41.7459273 C164.957564,45.0598909 167.028545,46.8353455 169.395382,46.8353455 C171.762873,46.8353455 173.833855,45.0598909 173.833855,41.7459273 M176.674582,41.7459273 C176.674582,46.0957091 173.656473,49.3209818 169.395382,49.3209818 C165.134945,49.3209818 162.116836,46.0957091 162.116836,41.7459273 C162.116836,37.4262545 165.134945,34.2009818 169.395382,34.2009818 C173.656473,34.2009818 176.674582,37.4262545 176.674582,41.7459273" id="Fill-6" fill="#000000"></path>
                <polygon id="Fill-7" fill="#000000" points="186.586364 48.8768727 183.775745 48.8768727 178.005927 34.6447636 181.142182 34.6447636 185.195782 45.6218182 189.279164 34.6447636 192.267164 34.6447636"></polygon>
                <path d="M203.452036,42.7814182 L203.452036,42.1304727 L199.102582,42.7814182 C197.919164,42.9588 197.031273,43.6395273 197.031273,44.9116364 C197.031273,45.9769091 197.919164,46.9829455 199.3392,46.9829455 C201.617673,46.9829455 203.452036,45.8882182 203.452036,42.7814182 M198.510545,40.7398909 L202.356982,40.1776364 C203.215091,40.0591636 203.452036,39.6153818 203.452036,39.1123636 C203.452036,37.7217818 202.534691,36.5678182 200.375018,36.5678182 C198.422182,36.5678182 197.327127,37.7810182 197.149745,39.438 L194.486727,38.8165091 C194.782582,36.0942545 197.238436,34.2006545 200.315782,34.2006545 C204.576545,34.2006545 206.2332,36.6270545 206.2332,39.4082182 L206.2332,46.5391636 C206.2332,47.7821455 206.351673,48.5217818 206.410909,48.8768727 L203.688655,48.8768727 C203.629418,48.5217818 203.540727,47.9893091 203.540727,46.9534909 C202.919236,47.9595273 201.4992,49.3206545 198.954655,49.3206545 C196.054691,49.3206545 194.190873,47.3085818 194.190873,45.0595636 C194.190873,42.5150182 196.054691,41.0949818 198.510545,40.7398909" id="Fill-8" fill="#000000"></path>
                <path d="M212.0328,44.2904727 C212.210509,45.7697455 213.335018,46.9534909 215.346764,46.9534909 C216.915055,46.9534909 217.773164,46.0659273 217.773164,45.0598909 C217.773164,44.172 217.122218,43.4916 215.9388,43.2252 L213.5124,42.6927273 C211.293164,42.2191636 209.961818,40.7104364 209.961818,38.6983636 C209.961818,36.2719636 212.239964,34.2006545 215.021455,34.2006545 C218.9268,34.2006545 220.14,36.7455273 220.436182,38.0176364 L217.980327,38.9349818 C217.861855,38.1953455 217.270145,36.5678182 215.021455,36.5678182 C213.601091,36.5678182 212.654291,37.4851636 212.654291,38.4614182 C212.654291,39.3198545 213.186764,39.9410182 214.281491,40.1776364 L216.589418,40.6806545 C219.163745,41.2429091 220.524545,42.8108727 220.524545,44.9116364 C220.524545,46.9240364 218.838109,49.3206545 215.317309,49.3206545 C211.411636,49.3206545 209.754655,46.8058909 209.517709,45.1780364 L212.0328,44.2904727 Z" id="Fill-9" fill="#000000"></path>
                <path d="M225.880036,27.1885091 C227.004545,27.1885091 227.891782,28.0760727 227.891782,29.2005818 C227.891782,30.2953091 227.004545,31.1832 225.880036,31.1832 C224.784982,31.1832 223.897418,30.2953091 223.897418,29.2005818 C223.897418,28.0760727 224.784982,27.1885091 225.880036,27.1885091 L225.880036,27.1885091 Z M224.518909,34.6447636 L227.3004,34.6447636 L227.3004,50.5338545 C227.3004,53.1081818 225.8208,54.9425455 223.364945,54.9425455 C222.3,54.9425455 221.885673,54.7946182 221.707964,54.7350545 L221.707964,52.398 C221.855891,52.4274545 222.181527,52.4866909 222.595855,52.4866909 C224.045673,52.4866909 224.518909,51.7172727 224.518909,50.4153818 L224.518909,34.6447636 Z" id="Fill-10" fill="#000000"></path>
                <path d="M242.863855,41.7459273 C242.863855,38.4617455 240.792873,36.6866182 238.425382,36.6866182 C236.058545,36.6866182 233.987564,38.4617455 233.987564,41.7459273 C233.987564,45.0598909 236.058545,46.8353455 238.425382,46.8353455 C240.792873,46.8353455 242.863855,45.0598909 242.863855,41.7459273 M245.704582,41.7459273 C245.704582,46.0957091 242.686473,49.3209818 238.425382,49.3209818 C234.164945,49.3209818 231.146836,46.0957091 231.146836,41.7459273 C231.146836,37.4262545 234.164945,34.2009818 238.425382,34.2009818 C242.686473,34.2009818 245.704582,37.4262545 245.704582,41.7459273" id="Fill-11" fill="#000000"></path>
                <path d="M252.332509,48.8768727 L249.551018,48.8768727 L249.551018,34.6447636 L252.272945,34.6447636 L252.272945,36.6862909 C253.308764,34.9111636 254.995527,34.2307636 256.652182,34.2307636 C260.054836,34.2307636 261.741273,36.6862909 261.741273,39.8523273 L261.741273,48.8768727 L258.960109,48.8768727 L258.960109,40.3258909 C258.960109,38.3432727 258.131782,36.7455273 255.646145,36.7455273 C253.457018,36.7455273 252.332509,38.4912 252.332509,40.6512 L252.332509,48.8768727 Z" id="Fill-12" fill="#000000"></path>
                <polygon id="Fill-13" fill="#000000" points="134.663891 83.8802291 125.136655 68.9971745 125.136655 83.8802291 121.0536 83.8802291 121.0536 62.9020473 126.142691 62.9020473 134.871055 76.7790655 134.871055 62.9020473 138.954109 62.9020473 138.954109 83.8802291"></polygon>
                <path d="M153.896727,76.6015855 C153.896727,73.8498764 152.121273,72.4592945 150.198218,72.4592945 C148.274836,72.4592945 146.499709,73.8498764 146.499709,76.6015855 C146.499709,79.3235127 148.274836,80.7438764 150.198218,80.7438764 C152.121273,80.7438764 153.896727,79.3532945 153.896727,76.6015855 M157.831855,76.6015855 C157.831855,81.0691855 154.547673,84.32424 150.198218,84.32424 C145.848764,84.32424 142.564582,81.0691855 142.564582,76.6015855 C142.564582,72.1042036 145.848764,68.8789309 150.198218,68.8789309 C154.547673,68.8789309 157.831855,72.1042036 157.831855,76.6015855" id="Fill-14" fill="#000000"></path>
                <path d="M170.111127,73.2285164 C169.667673,73.1398255 169.2828,73.1103709 168.927709,73.1103709 C166.915636,73.1103709 165.169964,74.0866255 165.169964,77.22288 L165.169964,83.8802618 L161.234836,83.8802618 L161.234836,69.3228436 L165.051818,69.3228436 L165.051818,71.4828436 C165.939382,69.5594618 167.951127,69.2043709 169.194109,69.2043709 C169.519418,69.2043709 169.8156,69.2341527 170.111127,69.2636073 L170.111127,73.2285164 Z" id="Fill-15" fill="#000000"></path>
                <path d="M182.893745,76.1576727 C182.893745,73.9089818 181.355236,72.4886182 179.461309,72.4886182 C177.508473,72.4886182 175.969964,73.9089818 175.969964,76.1576727 C175.969964,78.4361455 177.419782,79.8561818 179.461309,79.8561818 C181.473382,79.8561818 182.893745,78.4063636 182.893745,76.1576727 L182.893745,76.1576727 Z M175.555636,83.7324 C175.822036,85.3298182 177.094145,86.4841091 178.958618,86.4841091 C181.4436,86.4841091 182.834182,85.2414545 182.834182,82.4305091 L182.834182,81.3652364 C182.2428,82.3120364 180.881673,83.2290545 178.780909,83.2290545 C174.904691,83.2290545 172.005055,80.2410545 172.005055,76.1576727 C172.005055,72.3112364 174.786545,69.0565091 178.780909,69.0565091 C181.088509,69.0565091 182.420182,70.0625455 182.9232,71.0388 L182.9232,69.3229091 L186.7104,69.3229091 L186.7104,82.3120364 C186.7104,86.3064 184.5504,89.946 179.076764,89.946 C175.0824,89.946 172.419382,87.4603636 172.005055,84.6792 L175.555636,83.7324 Z" id="Fill-16" fill="#000000"></path>
                <path d="M200.3796,74.9444727 C200.320364,73.4946545 199.373891,72.0742909 197.1252,72.0742909 C195.083345,72.0742909 193.959164,73.6131273 193.870145,74.9444727 L200.3796,74.9444727 Z M204.048655,79.7082545 C203.309018,82.2233455 201.000764,84.3241091 197.420727,84.3241091 C193.426364,84.3241091 189.905564,81.4542545 189.905564,76.5425455 C189.905564,71.8969091 193.337673,68.8791273 197.065964,68.8791273 C201.563018,68.8791273 204.255818,71.7489818 204.255818,76.4240727 C204.255818,76.986 204.196582,77.5780364 204.196582,77.6372727 L193.781455,77.6372727 C193.870145,79.5603273 195.497673,80.9512364 197.450509,80.9512364 C199.284873,80.9512364 200.290909,80.0338909 200.764473,78.7316727 L204.048655,79.7082545 Z" id="Fill-17" fill="#000000"></path>
            </g>
        </g>
    </g>
</svg>