<?xml version="1.0" encoding="UTF-8" standalone="no"?>
<svg width="524px" height="90px" viewBox="0 0 524 90" version="1.1" xmlns="http://www.w3.org/2000/svg" xmlns:xlink="http://www.w3.org/1999/xlink">
    <!-- Generator: Sketch 3.7.2 (28276) - http://www.bohemiancoding.com/sketch -->
    <title>Nyskapingsparken Inkubator</title>
    <desc>Created with Sketch.</desc>
    <defs></defs>
    <g id="Page-1" stroke="none" stroke-width="1" fill="none" fill-rule="evenodd">
        <g id="Nyskapingsparken-Inkubator">
            <g id="Group">
                <g id="Page-1">
                    <path d="M0,67.8136667 L0,30.3392222 L4.15222222,29.8425556 L4.15222222,36.1314444 C5.72555556,33.857 7.51777778,32.1603333 9.52666667,31.0314444 C11.5355556,29.907 13.7866667,29.3436667 16.2788889,29.3436667 C20.3677778,29.3436667 23.5422222,30.5903333 25.8088889,33.0836667 C28.0677778,35.5714444 29.2,39.0892222 29.2,43.6392222 L29.2,67.3136667 L25.12,67.8136667 L25.12,45.7025556 C25.12,41.4158889 24.2911111,38.207 22.6377778,36.067 C20.9822222,33.9225556 18.5077778,32.8525556 15.2177778,32.8525556 C12.2422222,32.8525556 9.65444444,33.957 7.45444444,36.1803333 C5.25555556,38.3881111 4.15222222,41.0747778 4.15222222,44.2181111 L4.15222222,67.3136667 L0,67.8136667 Z" id="Fill-1" fill="#83AC46"></path>
                    <polygon id="Fill-2" fill="#83AC46" points="42.9594444 80.9245556 38.8616667 79.7967778 48.255 61.0112222 31.3861111 30.6956667 35.4472222 29.5367778 50.4638889 56.6223333 63.8427778 29.5367778 67.8294444 30.6234444"></polygon>
                    <path d="M67.7023333,62.6335556 L70.8167778,59.6513333 C72.1523333,61.1802222 73.6167778,62.328 75.2256667,63.1046667 C76.8312222,63.8791111 78.5556667,64.2646667 80.3912222,64.2646667 C82.6901111,64.2646667 84.5612222,63.6268889 86.0156667,62.3413333 C87.4667778,61.0613333 88.1878889,59.4035556 88.1878889,57.3757778 C88.1878889,55.5591111 87.6578889,54.1346667 86.5912222,53.0991111 C85.529,52.0568889 83.6312222,51.1957778 80.8978889,50.5213333 C76.2578889,49.3613333 73.0912222,47.9868889 71.4001111,46.4068889 C69.709,44.8191111 68.8634444,42.6302222 68.8634444,39.8257778 C68.8634444,36.8802222 70.0145556,34.3957778 72.3101111,32.3724444 C74.6078889,30.358 77.5178889,29.3435556 81.0501111,29.3435556 C83.1578889,29.3435556 85.1401111,29.6991111 87.0034444,30.3968889 C88.8645556,31.1046667 90.5801111,32.1457778 92.1556667,33.5202222 L89.5345556,36.9324444 C88.1312222,35.7246667 86.7067778,34.8046667 85.2545556,34.1791111 C83.8045556,33.548 82.3756667,33.2313333 80.9723333,33.2313333 C78.6512222,33.2313333 76.779,33.828 75.3712222,35.0135556 C73.9534444,36.1924444 73.2434444,37.7524444 73.2434444,39.6857778 C73.2434444,42.6057778 75.7978889,44.688 80.8978889,45.9146667 C81.9601111,46.1613333 82.7601111,46.3646667 83.2901111,46.5357778 C86.4378889,47.428 88.7945556,48.7313333 90.3712222,50.4446667 C91.9367778,52.1657778 92.7245556,54.2891111 92.7245556,56.8246667 C92.7245556,60.1568889 91.529,62.9246667 89.1345556,65.1257778 C86.7423333,67.3224444 83.7312222,68.4157778 80.1056667,68.4157778 C77.5401111,68.4157778 75.2145556,67.9302222 73.1245556,66.9535556 C71.0323333,65.978 69.2245556,64.5368889 67.7023333,62.6335556" id="Fill-3" fill="#83AC46"></path>
                    <path d="M103.752667,48.8971111 L120.098889,29.4593333 L123.573333,31.5248889 L109.261556,48.6771111 L125.593333,65.6093333 L122.38,68.0382222 L103.752667,48.8971111 Z M99.596,68.0382222 L99.596,15.3948889 L103.752667,14.8937778 L103.752667,67.3137778 L99.596,68.0382222 Z" id="Fill-4" fill="#83AC46"></path>
                    <path d="M131.332222,54.6218889 C131.332222,57.3518889 132.258889,59.6274444 134.111111,61.4552222 C135.962222,63.2752222 138.31,64.1874444 141.138889,64.1874444 C143.973333,64.1874444 146.255556,63.3052222 147.988889,61.5407778 C149.716667,59.7774444 150.582222,57.4707778 150.582222,54.6218889 C150.582222,51.7918889 149.716667,49.493 147.988889,47.7118889 C146.255556,45.9374444 143.997778,45.053 141.214444,45.053 C138.33,45.053 135.962222,45.9585556 134.111111,47.7718889 C132.258889,49.583 131.332222,51.8674444 131.332222,54.6218889 L131.332222,54.6218889 Z M150.582222,63.6085556 C149.253333,65.1418889 147.752222,66.2907778 146.082222,67.0685556 C144.414444,67.8396667 142.6,68.233 140.641111,68.233 C136.864444,68.233 133.65,66.9063333 130.996667,64.2585556 C128.352222,61.6074444 127.024444,58.3941111 127.024444,54.6218889 C127.024444,50.8718889 128.353333,47.663 131.02,45.0041111 C133.678889,42.3407778 136.884444,41.0096667 140.641111,41.0096667 C142.523333,41.0096667 144.325556,41.3796667 146.045556,42.1241111 C147.764444,42.8585556 149.273333,43.9363333 150.582222,45.3407778 L150.582222,40.6496667 C150.582222,38.0896667 149.936667,36.2063333 148.638889,34.9852222 C147.345556,33.763 145.343333,33.1596667 142.628889,33.1596667 C141.031111,33.1596667 139.298889,33.3907778 137.436667,33.8463333 C135.571111,34.3052222 133.44,35.0452222 131.043333,36.0552222 L132.674444,31.2363333 C134.49,30.6052222 136.267778,30.1318889 138.011111,29.8196667 C139.754444,29.5007778 141.432222,29.3441111 143.054444,29.3441111 C147.093333,29.3441111 150.05,30.2885556 151.923333,32.173 C153.798889,34.0518889 154.737778,37.0274444 154.737778,41.0841111 L154.737778,67.313 L150.582222,68.233 L150.582222,63.6085556 Z" id="Fill-5" fill="#83AC46"></path>
                    <path d="M167.017778,48.8438889 C167.017778,53.0761111 168.514444,56.6861111 171.502222,59.6694444 C174.494444,62.6583333 178.105556,64.1494444 182.344444,64.1494444 C186.581111,64.1494444 190.191111,62.6583333 193.185556,59.6694444 C196.173333,56.6861111 197.67,53.0761111 197.67,48.8438889 C197.67,44.6161111 196.173333,41.0027778 193.185556,38.0183333 C190.191111,35.035 186.581111,33.5438889 182.344444,33.5438889 C178.105556,33.5438889 174.494444,35.035 171.502222,38.0183333 C168.514444,41.0027778 167.017778,44.6161111 167.017778,48.8438889 L167.017778,48.8438889 Z M162.862222,30.3394444 L167.017778,29.8416667 L167.017778,37.7094444 C168.955556,35.045 171.223333,33.0216667 173.824444,31.6283333 C176.422222,30.2305556 179.263333,29.5372222 182.335556,29.5372222 C187.904444,29.5372222 192.552222,31.3794444 196.295556,35.0661111 C200.031111,38.7538889 201.898889,43.3416667 201.898889,48.8261111 C201.898889,54.3372222 200.031111,58.9583333 196.295556,62.6616667 C192.552222,66.3761111 187.904444,68.2327778 182.335556,68.2327778 C179.142222,68.2327778 176.242222,67.5238889 173.643333,66.1127778 C171.042222,64.705 168.83,62.6583333 167.017778,59.9805556 L167.017778,80.3494444 L162.862222,80.8872222 L162.862222,30.3394444 Z" id="Fill-6" fill="#83AC46"></path>
                    <polygon id="Fill-7" fill="#83AC46" points="209.004444 67.8836667 209.004444 30.3392222 213.235556 29.8425556 213.235556 67.3136667"></polygon>
                    <path d="M222.042222,67.8136667 L222.042222,30.3392222 L226.196667,29.8425556 L226.196667,36.1314444 C227.768889,33.857 229.56,32.1603333 231.568889,31.0314444 C233.578889,29.907 235.827778,29.3436667 238.318889,29.3436667 C242.407778,29.3436667 245.586667,30.5903333 247.847778,33.0836667 C250.11,35.5714444 251.24,39.0892222 251.24,43.6392222 L251.24,67.3136667 L247.163333,67.8136667 L247.163333,45.7025556 C247.163333,41.4158889 246.335556,38.207 244.676667,36.067 C243.02,33.9225556 240.546667,32.8525556 237.26,32.8525556 C234.287778,32.8525556 231.7,33.957 229.501111,36.1803333 C227.296667,38.3881111 226.196667,41.0747778 226.196667,44.2181111 L226.196667,67.3136667 L222.042222,67.8136667 Z" id="Fill-8" fill="#83AC46"></path>
                    <path d="M261.78,42.7382222 C261.78,45.4682222 262.852222,47.766 264.987778,49.6415556 C267.126667,51.5171111 269.793333,52.4448889 272.986667,52.4448889 C276.175556,52.4448889 278.825556,51.5171111 280.941111,49.6593333 C283.063333,47.7971111 284.116667,45.4915556 284.116667,42.7382222 C284.116667,40.1837778 283.044444,37.9904444 280.888889,36.1804444 C278.734444,34.3737778 276.103333,33.4626667 272.986667,33.4626667 C269.864444,33.4626667 267.222222,34.3637778 265.042222,36.1604444 C262.87,37.9604444 261.78,40.1548889 261.78,42.7382222 M280.277778,54.5548889 C283.035556,55.7926667 285.177778,57.4971111 286.704444,59.6882222 C288.234444,61.8726667 288.991111,64.3437778 288.991111,67.096 C288.991111,71.1348889 287.398889,74.516 284.187778,77.2482222 C280.988889,79.9771111 276.967778,81.3426667 272.127778,81.3426667 C268.675556,81.3426667 265.508889,80.5582222 262.65,78.9915556 C259.781111,77.4204444 257.372222,75.1693333 255.411111,72.2215556 L259.174444,69.7904444 C260.742222,72.2348889 262.634444,74.0915556 264.832222,75.3626667 C267.038889,76.6304444 269.471111,77.2648889 272.127778,77.2648889 C275.615556,77.2648889 278.581111,76.276 281.025556,74.3093333 C283.467778,72.3382222 284.684444,69.9371111 284.684444,67.1093333 C284.684444,64.1093333 283.467778,61.5615556 281.025556,59.476 C278.581111,57.3793333 275.615556,56.3382222 272.127778,56.3382222 C270.703333,56.3382222 269.206667,56.5282222 267.646667,56.9204444 C266.087778,57.3026667 264.433333,57.9015556 262.692222,58.7015556 L264.471111,54.0093333 C262.22,52.7293333 260.492222,51.1148889 259.286667,49.1704444 C258.074444,47.2215556 257.47,45.0748889 257.47,42.7382222 C257.47,39.0093333 258.931111,35.8815556 261.843333,33.3437778 C264.756667,30.8037778 268.352222,29.5371111 272.633333,29.5371111 C273.262222,29.5371111 273.965556,29.5582222 274.743333,29.6137778 C275.517778,29.6626667 276.32,29.7293333 277.166667,29.8282222 C277.364444,29.8515556 277.554444,29.8704444 277.751111,29.8848889 C277.941111,29.8926667 278.248889,29.9026667 278.664444,29.9026667 C279.987778,29.9026667 281.482222,29.7615556 283.15,29.4815556 C284.828889,29.2071111 287.111111,28.7037778 290.012222,27.9782222 L289.065556,30.8471111 C288.801111,31.6504444 288.477778,32.1926667 288.082222,32.4715556 C287.701111,32.7537778 287.152222,32.8893333 286.45,32.8893333 C286.036667,32.8893333 284.916667,32.7582222 283.106667,32.4882222 C282.718889,32.4437778 282.431111,32.4071111 282.231111,32.3771111 C284.258889,33.5437778 285.803333,34.9948889 286.847778,36.7471111 C287.901111,38.4971111 288.424444,40.4971111 288.424444,42.7471111 C288.424444,45.3282222 287.721111,47.6404444 286.305556,49.6815556 C284.893333,51.7248889 282.882222,53.3515556 280.277778,54.5548889" id="Fill-9" fill="#83AC46"></path>
                    <path d="M293.662222,62.6335556 L296.782222,59.6513333 C298.107778,61.1802222 299.576667,62.328 301.187778,63.1046667 C302.793333,63.8791111 304.515556,64.2646667 306.354444,64.2646667 C308.652222,64.2646667 310.517778,63.6268889 311.977778,62.3413333 C313.418889,61.0613333 314.147778,59.4035556 314.147778,57.3757778 C314.147778,55.5591111 313.617778,54.1346667 312.554444,53.0991111 C311.493333,52.0568889 309.587778,51.1957778 306.857778,50.5213333 C302.215556,49.3613333 299.053333,47.9868889 297.36,46.4068889 C295.664444,44.8191111 294.816667,42.6302222 294.816667,39.8257778 C294.816667,36.8802222 295.967778,34.3957778 298.27,32.3724444 C300.565556,30.358 303.476667,29.3435556 307.011111,29.3435556 C309.122222,29.3435556 311.104444,29.6991111 312.962222,30.3968889 C314.823333,31.1046667 316.538889,32.1457778 318.113333,33.5202222 L315.494444,36.9324444 C314.083333,35.7246667 312.662222,34.8046667 311.21,34.1791111 C309.76,33.548 308.336667,33.2313333 306.93,33.2313333 C304.611111,33.2313333 302.74,33.828 301.332222,35.0135556 C299.908889,36.1924444 299.205556,37.7524444 299.205556,39.6857778 C299.205556,42.6057778 301.757778,44.688 306.857778,45.9146667 C307.921111,46.1613333 308.716667,46.3646667 309.246667,46.5357778 C312.392222,47.428 314.754444,48.7313333 316.321111,50.4446667 C317.901111,52.1657778 318.682222,54.2891111 318.682222,56.8246667 C318.682222,60.1568889 317.484444,62.9246667 315.097778,65.1257778 C312.698889,67.3224444 309.685556,68.4157778 306.063333,68.4157778 C303.494444,68.4157778 301.171111,67.9302222 299.076667,66.9535556 C296.988889,65.978 295.185556,64.5368889 293.662222,62.6335556" id="Fill-10" fill="#83AC46"></path>
                    <path d="M329.562222,48.8438889 C329.562222,53.0761111 331.06,56.6861111 334.044444,59.6694444 C337.032222,62.6583333 340.651111,64.1494444 344.884444,64.1494444 C349.12,64.1494444 352.737778,62.6583333 355.727778,59.6694444 C358.711111,56.6861111 360.207778,53.0761111 360.207778,48.8438889 C360.207778,44.6161111 358.711111,41.0027778 355.727778,38.0183333 C352.737778,35.035 349.12,33.5438889 344.884444,33.5438889 C340.651111,33.5438889 337.032222,35.035 334.044444,38.0183333 C331.06,41.0027778 329.562222,44.6161111 329.562222,48.8438889 L329.562222,48.8438889 Z M325.407778,30.3394444 L329.562222,29.8416667 L329.562222,37.7094444 C331.492222,35.045 333.762222,33.0216667 336.367778,31.6283333 C338.974444,30.2305556 341.802222,29.5372222 344.877778,29.5372222 C350.445556,29.5372222 355.097778,31.3794444 358.836667,35.0661111 C362.57,38.7538889 364.446667,43.3416667 364.446667,48.8261111 C364.446667,54.3372222 362.57,58.9583333 358.836667,62.6616667 C355.097778,66.3761111 350.445556,68.2327778 344.877778,68.2327778 C341.685556,68.2327778 338.795556,67.5238889 336.186667,66.1127778 C333.581111,64.705 331.374444,62.6583333 329.562222,59.9805556 L329.562222,80.3494444 L325.407778,80.8872222 L325.407778,30.3394444 Z" id="Fill-11" fill="#A0A6AD"></path>
                    <path d="M373.034444,54.6218889 C373.034444,57.3518889 373.955556,59.6274444 375.812222,61.4552222 C377.67,63.2752222 380.012222,64.1874444 382.844444,64.1874444 C385.672222,64.1874444 387.955556,63.3052222 389.691111,61.5407778 C391.423333,59.7774444 392.287778,57.4707778 392.287778,54.6218889 C392.287778,51.7918889 391.423333,49.493 389.691111,47.7118889 C387.955556,45.9374444 385.697778,45.053 382.914444,45.053 C380.03,45.053 377.67,45.9585556 375.812222,47.7718889 C373.955556,49.583 373.034444,51.8674444 373.034444,54.6218889 L373.034444,54.6218889 Z M392.287778,63.6085556 C390.953333,65.1418889 389.455556,66.2907778 387.782222,67.0685556 C386.114444,67.8396667 384.305556,68.233 382.335556,68.233 C378.561111,68.233 375.348889,66.9063333 372.702222,64.2585556 C370.05,61.6074444 368.728889,58.3941111 368.728889,54.6218889 C368.728889,50.8718889 370.058889,47.663 372.722222,45.0041111 C375.376667,42.3407778 378.588889,41.0096667 382.335556,41.0096667 C384.22,41.0096667 386.032222,41.3796667 387.745556,42.1241111 C389.464444,42.8585556 390.981111,43.9363333 392.287778,45.3407778 L392.287778,40.6496667 C392.287778,38.0896667 391.641111,36.2063333 390.342222,34.9852222 C389.044444,33.763 387.044444,33.1596667 384.326667,33.1596667 C382.733333,33.1596667 381.004444,33.3907778 379.138889,33.8463333 C377.272222,34.3052222 375.145556,35.0452222 372.748889,36.0552222 L374.38,31.2363333 C376.19,30.6052222 377.973333,30.1318889 379.717778,29.8196667 C381.453333,29.5007778 383.132222,29.3441111 384.752222,29.3441111 C388.8,29.3441111 391.746667,30.2885556 393.623333,32.173 C395.498889,34.0518889 396.44,37.0274444 396.44,41.0841111 L396.44,67.313 L392.287778,68.233 L392.287778,63.6085556 Z" id="Fill-12" fill="#A0A6AD"></path>
                    <path d="M404.836667,67.8136667 L404.836667,30.3392222 L408.943333,29.8425556 L408.943333,37.8014444 C410.452222,34.9081111 412.281111,32.7414444 414.442222,31.2847778 C416.606667,29.8425556 419.114444,29.1214444 421.96,29.1214444 L422.981111,29.1214444 L421.276667,33.197 C417.067778,33.6047778 413.968889,35.4503333 411.956667,38.7136667 C409.956667,41.9803333 408.943333,46.8581111 408.943333,53.3414444 L408.943333,67.3136667 L404.836667,67.8136667 Z" id="Fill-13" fill="#A0A6AD"></path>
                    <path d="M430.026667,48.8971111 L446.377778,29.4593333 L449.857778,31.5248889 L435.544444,48.6771111 L451.875556,65.6093333 L448.661111,68.0382222 L430.026667,48.8971111 Z M425.874444,68.0382222 L425.874444,15.3948889 L430.026667,14.8937778 L430.026667,67.3137778 L425.874444,68.0382222 Z" id="Fill-14" fill="#A0A6AD"></path>
                    <path d="M456.945556,52.0128889 L481.396667,37.4917778 C480.352222,36.2162222 479.045556,35.2462222 477.46,34.5962222 C475.881111,33.9406667 474.068889,33.6151111 472.041111,33.6151111 C467.785556,33.6151111 464.181111,35.0795556 461.223333,37.9995556 C458.276667,40.9206667 456.796667,44.5073333 456.796667,48.7528889 C456.796667,49.4351111 456.807778,50.0195556 456.835556,50.5117778 C456.862222,51.0062222 456.9,51.5073333 456.945556,52.0128889 L456.945556,52.0128889 Z M486.724444,62.9428889 C484.285556,64.754 481.868889,66.0873333 479.478889,66.9451111 C477.082222,67.7984444 474.6,68.2328889 472.041111,68.2328889 C466.408889,68.2328889 461.727778,66.3762222 458.008889,62.6606667 C454.283333,58.9573333 452.417778,54.3373333 452.417778,48.8262222 C452.417778,43.3128889 454.294444,38.7251111 458.045556,35.0517778 C461.783333,31.3762222 466.454444,29.5373333 472.041111,29.5373333 C475.565556,29.5373333 478.656667,30.3017778 481.307778,31.8262222 C483.957778,33.3495556 486.012222,35.5528889 487.49,38.434 L458.43,55.5684444 C459.81,58.2317778 461.687778,60.2906667 464.056667,61.7417778 C466.425556,63.1995556 469.083333,63.9217778 472.041111,63.9217778 C474.387778,63.9217778 476.702222,63.434 478.997778,62.4517778 C481.298889,61.4662222 483.876667,59.8495556 486.724444,57.5917778 L486.724444,62.9428889 Z" id="Fill-15" fill="#A0A6AD"></path>
                    <path d="M493.062222,67.8136667 L493.062222,30.3392222 L497.216667,29.8425556 L497.216667,36.1314444 C498.782222,33.857 500.58,32.1603333 502.59,31.0314444 C504.601111,29.907 506.845556,29.3436667 509.341111,29.3436667 C513.433333,29.3436667 516.604444,30.5903333 518.866667,33.0836667 C521.132222,35.5714444 522.257778,39.0892222 522.257778,43.6392222 L522.257778,67.3136667 L518.183333,67.8136667 L518.183333,45.7025556 C518.183333,41.4158889 517.352222,38.207 515.694444,36.067 C514.044444,33.9225556 511.567778,32.8525556 508.286667,32.8525556 C505.302222,32.8525556 502.715556,33.957 500.514444,36.1803333 C498.316667,38.3881111 497.216667,41.0747778 497.216667,44.2181111 L497.216667,67.3136667 L493.062222,67.8136667 Z" id="Fill-16" fill="#A0A6AD"></path>
                    <polygon id="Fill-17" fill="#000000" points="212.82 10.4091111 212.407778 10.688 211.946667 10.9146667 211.343333 11.0902222 210.688889 11.2013333 209.983333 11.3246667 209.18 11.4368889 208.382222 11.5502222 207.526667 11.6091111 206.723333 11.7213333 205.871111 11.8346667 205.07 11.9457778 204.267778 12.1102222 203.558889 12.3246667 202.896667 12.5902222 202.285556 12.9113333 201.765556 13.2857778 200.92 14.348 200.678889 15.228 200.893333 16.0391111 201.408889 16.7091111 202.132222 17.2424444 202.905556 17.728 203.583333 18.1568889 204.013333 18.4768889 204.295556 18.9402222 204.664444 19.6524444 205.07 20.468 205.533333 21.2402222 206.155556 21.8168889 206.943333 22.1013333 207.845556 21.9457778 208.977778 21.2024444 209.774444 20.1391111 210.383333 18.818 210.808889 17.2424444 211.131111 15.5657778 211.454444 13.9346667 211.824444 12.4557778 212.231111 11.2302222"></polygon>
                    <polygon id="Fill-18" fill="#000000" points="211.462222 10.4145556 212.051111 11.2345556 212.457778 12.4601111 212.82 13.939 213.144444 15.5656667 213.474444 17.2523333 213.947778 18.819 214.556667 20.1401111 215.353333 21.2023333 216.486667 21.9456667 217.387778 22.1012222 218.125556 21.8212222 218.746667 21.2445556 219.263333 20.4678889 219.666667 19.6523333 219.986667 18.9401111 220.262222 18.4767778 220.698889 18.1623333 221.376667 17.7278889 222.202222 17.2434444 222.922222 16.709 223.438889 16.039 223.653333 15.2278889 223.411111 14.3434444 222.564444 13.2856667 222.045556 12.9112222 221.435556 12.5901111 220.772222 12.3245556 220.02 12.1101111 219.263333 11.9412222 218.405556 11.8345556 217.604444 11.7212222 216.752222 11.6123333 215.903333 11.5501111 215.096667 11.4367778 214.296667 11.3245556 213.593333 11.2112222 212.943333 11.0901111 212.335556 10.9201111 211.874444 10.689"></polygon>
                    <polygon id="Fill-19" fill="#000000" points="211.462222 11.6895556 211.874444 11.414 212.335556 11.1817778 212.943333 11.014 213.593333 10.8917778 214.296667 10.7795556 215.096667 10.6662222 215.9 10.6028889 216.752222 10.4895556 217.604444 10.4328889 218.405556 10.324 219.263333 10.1584444 220.02 10.0006667 220.772222 9.77955556 221.435556 9.51288889 222.045556 9.19066667 222.564444 8.81844444 223.407778 7.75844444 223.653333 6.87622222 223.438889 6.11955556 222.916667 5.44622222 222.202222 4.86177778 221.376667 4.37622222 220.695556 3.99622222 220.262222 3.67844444 219.984444 3.21288889 219.666667 2.49955556 219.263333 1.63066667 218.746667 0.864 218.125556 0.284 217.387778 0.000666666667 216.486667 0.156222222 215.353333 0.900666667 214.556667 1.96288889 213.947778 3.28511111 213.474444 4.854 213.144444 6.53733333 212.82 8.16622222 212.457778 9.64177778 212.051111 10.874"></polygon>
                    <polygon id="Fill-20" fill="#000000" points="212.82 11.6933333 212.231111 10.8744444 211.824444 9.64666667 211.454444 8.17111111 211.131111 6.53666667 210.808889 4.85777778 210.383333 3.28555556 209.774444 1.96333333 208.977778 0.901111111 207.845556 0.156666667 206.943333 0 206.155556 0.285555556 205.533333 0.863333333 205.07 1.63111111 204.664444 2.49888889 204.297778 3.21333333 204.021111 3.67777778 203.586667 3.99555556 202.905556 4.37555556 202.132222 4.86222222 201.408889 5.44666667 200.893333 6.12 200.678889 6.87666667 200.92 7.75888889 201.765556 8.81888889 202.285556 9.19111111 202.896667 9.51333333 203.558889 9.77888889 204.267778 10 205.07 10.1577778 205.871111 10.3244444 206.723333 10.4333333 207.526667 10.4955556 208.382222 10.6033333 209.18 10.67 209.983333 10.7788889 210.688889 10.8966667 211.343333 11.0177778 211.946667 11.19 212.407778 11.4144444"></polygon>
                    <polygon id="Fill-21" fill="#000000" points="371.35 89.4742222 373.576667 89.4742222 373.576667 72.6675556 371.35 72.6675556"></polygon>
                    <polygon id="Fill-22" fill="#000000" points="380.05 89.4743333 380.05 72.6676667 382.336667 72.6676667 391.17 85.8665556 391.17 72.6676667 393.314444 72.6676667 393.314444 89.4743333 391.027778 89.4743333 382.194444 76.2765556 382.194444 89.4743333"></polygon>
                    <polygon id="Fill-23" fill="#000000" points="399.491111 89.4743333 399.491111 72.6676667 401.728889 72.6676667 401.728889 80.9821111 410.071111 72.6676667 413.085556 72.6676667 406.025556 79.4821111 413.39 89.4743333 410.46 89.4743333 404.467778 80.9843333 401.728889 83.6398889 401.728889 89.4743333"></polygon>
                    <path d="M428.85,72.6672222 L431.075556,72.6672222 L431.075556,82.3683333 C431.075556,84.0605556 430.887778,85.4005556 430.507778,86.3961111 C430.121111,87.3861111 429.435556,88.1938889 428.433333,88.8138889 C427.431111,89.4383333 426.118889,89.7516667 424.501111,89.7516667 C422.926667,89.7516667 421.636667,89.4772222 420.638889,88.9372222 C419.627778,88.3972222 418.916667,87.6105556 418.491111,86.5783333 C418.062222,85.5561111 417.844444,84.1505556 417.844444,82.3683333 L417.844444,72.6672222 L420.081111,72.6672222 L420.081111,82.3505556 C420.081111,83.8083333 420.215556,84.8861111 420.482222,85.5727778 C420.754444,86.2638889 421.222222,86.795 421.882222,87.175 C422.537778,87.5505556 423.351111,87.7338889 424.306667,87.7338889 C425.94,87.7338889 427.106667,87.3605556 427.802222,86.6238889 C428.498889,85.8816667 428.85,84.4561111 428.85,82.3505556 L428.85,72.6672222 Z" id="Fill-24" fill="#000000"></path>
                    <path d="M439.485556,87.4886667 L443.666667,87.4886667 C444.386667,87.4886667 444.88,87.462 445.183333,87.4097778 C445.694444,87.3175556 446.118889,87.1642222 446.462222,86.9486667 C446.803333,86.7375556 447.081111,86.4264444 447.307778,86.0164444 C447.534444,85.6064444 447.64,85.1364444 447.64,84.602 C447.64,83.9731111 447.477778,83.4297778 447.146667,82.9686667 C446.814444,82.5064444 446.36,82.1797778 445.791111,81.9897778 C445.223333,81.8075556 444.415556,81.7131111 443.351111,81.7131111 L439.485556,81.7131111 L439.485556,87.4886667 Z M439.485556,79.7242222 L443.098889,79.7242222 C444.083333,79.7242222 444.783333,79.6631111 445.211111,79.532 C445.768889,79.3642222 446.19,79.0864444 446.481111,78.6986667 C446.766667,78.3097778 446.911111,77.8175556 446.911111,77.232 C446.911111,76.6797778 446.776667,76.1875556 446.502222,75.7586667 C446.244444,75.3308889 445.855556,75.0408889 445.371111,74.8886667 C444.872222,74.7308889 444.026667,74.6531111 442.821111,74.6531111 L439.485556,74.6531111 L439.485556,79.7242222 Z M437.257778,89.4742222 L437.257778,72.6675556 L443.552222,72.6675556 C444.832222,72.6675556 445.855556,72.8397778 446.633333,73.182 C447.408889,73.5197778 448.011111,74.042 448.452222,74.7475556 C448.888889,75.4508889 449.108889,76.1908889 449.108889,76.9631111 C449.108889,77.6764444 448.91,78.3486667 448.517778,78.992 C448.128889,79.6197778 447.534444,80.1308889 446.748889,80.5186667 C447.768889,80.8231111 448.558889,81.3275556 449.108889,82.0453333 C449.658889,82.7664444 449.932222,83.6131111 449.932222,84.5931111 C449.932222,85.3842222 449.771111,86.1208889 449.436667,86.7942222 C449.1,87.4686667 448.698889,87.9953333 448.198889,88.3586667 C447.713333,88.7253333 447.101111,89.0097778 446.36,89.1942222 C445.62,89.3831111 444.718889,89.4742222 443.657778,89.4742222 L437.257778,89.4742222 Z" id="Fill-25" fill="#000000"></path>
                    <path d="M458.567778,82.5678889 L464.305556,82.5678889 L462.541111,77.9178889 C462.018889,76.5012222 461.611111,75.3312222 461.344444,74.4056667 C461.108889,75.5034444 460.805556,76.5778889 460.405556,77.6434444 L458.567778,82.5678889 Z M453.733333,89.4745556 L460.162222,72.6667778 L462.606667,72.6667778 L469.471111,89.4745556 L466.947778,89.4745556 L465.013333,84.369 L457.934444,84.369 L456.095556,89.4745556 L453.733333,89.4745556 Z" id="Fill-26" fill="#000000"></path>
                    <polygon id="Fill-27" fill="#000000" points="476.351111 89.4743333 476.351111 74.6532222 470.815556 74.6532222 470.815556 72.6676667 484.107778 72.6676667 484.107778 74.6532222 478.58 74.6532222 478.58 89.4743333"></polygon>
                    <path d="M490.184444,81.319 C490.184444,83.3478889 490.725556,84.9378889 491.815556,86.1056667 C492.902222,87.2745556 494.258889,87.8556667 495.901111,87.8556667 C497.568889,87.8556667 498.948889,87.2656667 500.021111,86.0878889 C501.101111,84.9112222 501.643333,83.2434444 501.643333,81.0801111 C501.643333,79.7145556 501.407778,78.5201111 500.95,77.4967778 C500.487778,76.4812222 499.813333,75.6923333 498.931111,75.1334444 C498.037778,74.5678889 497.037778,74.2834444 495.937778,74.2834444 C494.371111,74.2834444 493.016667,74.8256667 491.878889,75.9123333 C490.743333,76.9901111 490.184444,78.7934444 490.184444,81.319 M487.888889,81.2778889 C487.888889,78.4901111 488.636667,76.309 490.134444,74.7301111 C491.625556,73.1501111 493.557778,72.3656667 495.926667,72.3656667 C497.471111,72.3656667 498.865556,72.7278889 500.11,73.4745556 C501.352222,74.2167778 502.297778,75.249 502.961111,76.5745556 C503.605556,77.8945556 503.928889,79.4034444 503.928889,81.0801111 C503.928889,82.7878889 503.587778,84.3123333 502.904444,85.6556667 C502.221111,87.0034444 501.245556,88.0167778 499.983333,88.7101111 C498.732222,89.4045556 497.37,89.7523333 495.908889,89.7523333 C494.334444,89.7523333 492.924444,89.3712222 491.682222,88.6034444 C490.438889,87.8367778 489.492222,86.7945556 488.853333,85.4756667 C488.211111,84.1556667 487.888889,82.7545556 487.888889,81.2778889" id="Fill-28" fill="#000000"></path>
                    <path d="M511.664444,80.0938889 L516.443333,80.0938889 C517.463333,80.0938889 518.252222,79.9894444 518.83,79.7794444 C519.4,79.5672222 519.833333,79.2327778 520.137778,78.7683333 C520.433333,78.3105556 520.581111,77.8061111 520.581111,77.2583333 C520.581111,76.465 520.291111,75.8116667 519.712222,75.2983333 C519.14,74.7905556 518.224444,74.5316667 516.973333,74.5316667 L511.664444,74.5316667 L511.664444,80.0938889 Z M509.427778,89.4738889 L509.427778,72.6672222 L516.884444,72.6672222 C518.393333,72.6672222 519.522222,72.8216667 520.31,73.1238889 C521.084444,73.425 521.707778,73.9572222 522.176667,74.7216667 C522.642222,75.4838889 522.868889,76.3294444 522.868889,77.2583333 C522.868889,78.4527778 522.488889,79.4583333 521.714444,80.2738889 C520.942222,81.0961111 519.748889,81.6127778 518.137778,81.8361111 C518.724444,82.1183333 519.173333,82.3961111 519.482222,82.6716667 C520.128889,83.2683333 520.744444,84.0083333 521.321111,84.9016667 L524.232222,89.4738889 L521.456667,89.4738889 L519.227778,85.9794444 C518.581111,84.975 518.045556,84.205 517.624444,83.6672222 C517.198889,83.1361111 516.83,82.7572222 516.496667,82.5472222 C516.164444,82.3327778 515.823333,82.1805556 515.476667,82.1016667 C515.225556,82.045 514.812222,82.0183333 514.242222,82.0183333 L511.664444,82.0183333 L511.664444,89.4738889 L509.427778,89.4738889 Z" id="Fill-29" fill="#000000"></path>
                </g>
            </g>
        </g>
    </g>
</svg>